<svg width="512" height="512" viewBox="0 0 512 512" fill="none" xmlns="http://www.w3.org/2000/svg">
<g clip-path="url(#clip0_2067_72)">
<path d="M256 512C416 512 512 400 512 256C512 80 400 0 208 0C80 0 0 112 0 256C0 400 112 512 256 512Z" fill="#DF6035"/>
<path d="M214.664 170.192V114.384L283.784 101.072L277.128 170.192H339.08L333.448 212.176H275.08L272.52 319.184C272.52 335.227 274.056 345.979 277.128 351.44C280.2 356.56 285.832 359.12 294.024 359.12C302.216 359.12 313.139 357.243 326.792 353.488L329.864 389.84C307.336 408.613 287.539 418 270.472 418C253.405 418 239.411 411.856 228.488 399.568C217.565 386.939 212.104 370.555 212.104 350.416L215.176 293.072L214.664 212.176H179.336L184.968 170.192H214.664Z" fill="white"/>
</g>
<defs>
<clipPath id="clip0_2067_72">
<rect width="512" height="512" fill="white"/>
</clipPath>
</defs>
</svg>
